<svg data-v-0dd9719b="" version="1.0" xmlns="http://www.w3.org/2000/svg" xmlns:xlink="http://www.w3.org/1999/xlink" width="100%" height="100%" viewBox="0 0 340.000000 250.000000" preserveAspectRatio="xMidYMid meet" color-interpolation-filters="sRGB" style="margin: auto;"> <rect data-v-0dd9719b="" x="0" y="0" width="100%" height="100%" fill="#fff" fill-opacity="1" class="background"></rect> <rect data-v-0dd9719b="" x="0" y="0" width="100%" height="100%" fill="url(#watermark)" fill-opacity="1" class="watermarklayer"></rect> <g data-v-0dd9719b="" fill="#aad81a" class="icon-text-wrapper icon-svg-group iconsvg" transform="translate(49.625,94.99939918518066)"><g class="iconsvg-imagesvg" transform="translate(0,0)"><g><rect fill="#aad81a" fill-opacity="0" stroke-width="2" x="0" y="0" width="60" height="60.00120002400048" class="image-rect"></rect> <svg x="0" y="0" width="60" height="60.00120002400048" filtersec="colorsb2934048143" class="image-svg-svg primary" style="overflow: visible;"><svg version="1.1" id="cube" xmlns="http://www.w3.org/2000/svg" xmlns:xlink="http://www.w3.org/1999/xlink" x="0px" y="0px" viewBox="9.789997100830078 7.599999904632568 490.46002197265625 490.47003173828125" enable-background="new 0 0 511 507.62" xml:space="preserve">
<path fill="#CDE82E" d="M372.43,83.05L290.7,222.44c-10.87,18.55-4.65,42.4,13.89,53.27l131.08,76.86
	c18.54,10.87,42.41,4.53,49.78-15.66c9.58-26.22,14.8-54.53,14.8-84.07c0-70.68-29.9-134.37-77.74-179.13
	C406.82,59.02,383.3,64.5,372.43,83.05z"></path>
<path fill="#C1D120" d="M273.91,212.6l81.96-139.78c10.87-18.55,4.58-42.49-15.57-49.97C313.74,12.99,285.01,7.6,255.02,7.6
	c-74.3,0-140.88,33.05-185.84,85.24c-14.03,16.29-7.94,40.19,10.6,51.06l140.86,82.59C239.19,237.36,263.04,231.14,273.91,212.6z"></path>
<path fill="#AAD81A" d="M147.17,428.76l77.51-132.21c10.87-18.55,4.65-42.4-13.89-53.27L70.21,160.86
	c-18.54-10.88-41.86-4.23-48.49,16.22c-7.74,23.86-11.93,49.32-11.93,75.76c0,74.76,33.46,141.7,86.21,186.68
	C112.36,453.47,136.3,447.3,147.17,428.76z"></path>
<path fill="#B1E032" d="M241.48,306.39l-77.29,131.83c-10.87,18.55-4.19,41.78,16.3,48.31c23.51,7.49,48.55,11.54,74.54,11.54
	c71.14,0,135.2-30.29,179.99-78.68c14.61-15.78,9.05-39.35-9.5-50.22L294.75,292.5C276.2,281.63,252.35,287.85,241.48,306.39z"></path>
</svg></svg> <!----></g></g> <g transform="translate(67,1.534353256225586)"><g data-gra="path-name" fill-rule="" class="tp-name iconsvg-namesvg" transform="translate(0,0)"><g transform="scale(1)"><g><path d="M34.29-10.04L36.77-8.19Q35.64-6.79 34.24-5 32.85-3.19 31.54-1.67L31.54-1.67 40.73-1.67 40.73 3.42 3.6 3.42 3.6-1.67 12.82-1.67Q12.24-2.43 11.54-3.31 10.84-4.18 10.17-5.04 9.49-5.89 8.87-6.66 8.23-7.42 7.79-7.92L7.79-7.92 10.17-10.04 5.98-10.04 5.98-15.34 19.48-15.34 19.48-18.59 10.89-18.59 10.89-21.29Q7.69-19.3 4.05-17.59L4.05-17.59 1.57-22.81Q8.05-25.52 12.62-28.82 17.19-32.13 20.16-36.27L20.16-36.27 24.43-36.27Q27.31-32.27 31.95-28.91 36.59-25.56 42.8-23.13L42.8-23.13 40.55-17.86Q38.74-18.63 36.95-19.55 35.14-20.47 33.44-21.51L33.44-21.51 33.44-18.59 24.84-18.59 24.84-15.34 38.38-15.34 38.38-10.04 34.29-10.04ZM22.23-30.38L22.23-30.38Q20.93-28.84 18.99-27.16 17.05-25.47 14.63-23.76L14.63-23.76 29.97-23.76Q27.58-25.43 25.61-27.13 23.63-28.84 22.23-30.38ZM19.48-10.04L12.51-10.04Q13.05-9.36 13.72-8.55 14.4-7.74 15.07-6.93 15.75-6.12 16.38-5.35 17.01-4.59 17.5-4L17.5-4 14.63-1.67 19.48-1.67 19.48-10.04ZM31.59-10.04L24.84-10.04 24.84-1.67 29.47-1.67 26.73-4.14Q27.81-5.35 29.14-6.95 30.46-8.55 31.59-10.04L31.59-10.04ZM65.56-23.89L65.56-15.93Q65.56-12.01 65.36-9.22 65.16-6.43 64.55-4.14 63.95-1.84 62.89 0.2 61.83 2.25 60.08 4.68L60.08 4.68 55.89 1.62Q57.83-0.77 58.77-2.7L58.77-2.7Q57.73-2.43 56.12-2 54.5-1.57 52.78-1.13 51.08-0.67 49.59-0.27 48.11 0.14 47.34 0.4L47.34 0.4 46.48-4.86Q47.02-4.95 48.26-5.24 49.5-5.54 51.08-5.94L51.08-5.94 51.08-15.34 47.88-15.34 47.88-20.38 51.08-20.38 51.08-27.58 47.43-27.58 47.43-32.58 59.76-32.58 59.76-27.58 55.94-27.58 55.94-20.38 59.4-20.38 59.4-15.34 55.94-15.34 55.94-7.25Q58.14-7.88 59.17-8.23L59.17-8.23 59.36-5.58 59.45-4.27Q59.9-5.4 60.14-6.59 60.39-7.79 60.53-9.2 60.66-10.62 60.7-12.31 60.75-13.99 60.75-16.11L60.75-16.11 60.75-28.08 69.16-28.08 69.16-36.05 74.11-35.82 74.11-33.66 83.43-33.66 83.43-29.38 74.11-29.38 74.11-28.08 85.55-28.08 85.55-23.71 84.28-20.11 79.83-20.93 80.78-23.89 74.2-23.89 74.2-21.64 78.93-22.14 79.34-17.95 74.2-17.37Q74.2-16.43 74.39-15.95 74.56-15.48 75.47-15.39L75.47-15.39Q77.04-15.25 78.48-15.39L78.48-15.39Q79.42-15.48 79.72-15.86 80.01-16.25 80.15-17.05L80.15-17.05Q80.28-17.86 80.28-18.68L80.28-18.68 84.1-17.59Q84.1-17.1 84.04-16.47 83.97-15.84 83.88-15.21L83.88-15.21Q83.61-13.46 82.62-12.76 81.63-12.06 79.42-11.88L79.42-11.88Q76.72-11.65 73.84-11.88L73.84-11.88Q71.82-12.01 70.81-12.91 69.8-13.81 69.8-16.2L69.8-16.2 69.8-16.88 66.47-16.47 66.02-20.75 69.8-21.15 69.8-23.89 65.56-23.89ZM82.8-5.31L86.85-4.23Q86.85-3.19 86.76-2.16 86.67-1.13 86.53-0.09L86.53-0.09Q86.35 1.13 86.11 1.84 85.86 2.56 85.52 2.97 85.19 3.38 84.76 3.53 84.33 3.69 83.88 3.73L83.88 3.73Q83.12 3.82 82.28 3.87 81.45 3.92 80.64 3.92 79.83 3.92 79.11 3.89 78.39 3.87 77.85 3.78L77.85 3.78Q77.04 3.69 76.5 3.46 75.96 3.24 75.62 2.79 75.28 2.34 75.13 1.6 74.97 0.85 74.97-0.32L74.97-0.32 74.97-6.57 71.64-6.57 71.64-5.54Q71.64-4.18 71.39-2.88 71.14-1.57 70.49-0.27 69.84 1.03 68.78 2.36 67.72 3.69 66.11 5.13L66.11 5.13 62.59 1.93Q64.22 0.58 65.14-0.36 66.06-1.3 66.53-2.23 67-3.15 67.12-4.25 67.23-5.35 67.23-7.06L67.23-7.06 67.23-10.66 79.34-10.66 79.34-2.16Q79.34-1.4 79.52-1.1 79.69-0.81 80.1-0.77L80.1-0.77Q80.37-0.72 80.8-0.72 81.22-0.72 81.5-0.77L81.5-0.77Q81.99-0.85 82.19-1.06 82.4-1.26 82.48-1.93L82.48-1.93Q82.58-2.65 82.66-3.65 82.75-4.63 82.8-5.31L82.8-5.31ZM92.88-34.38L128.34-34.38 128.34-2.07Q128.34-0.22 128.05 0.94 127.75 2.11 127.01 2.81 126.27 3.51 124.97 3.87 123.66 4.23 121.59 4.46L121.59 4.46 118.75 4.77 117.05-0.54 120.19-0.9Q121.09-0.99 121.66-1.13 122.22-1.26 122.53-1.53 122.85-1.8 122.96-2.25 123.08-2.7 123.08-3.42L123.08-3.42 123.08-5.13 120.15-2.97Q119.52-4.32 118.73-5.89 117.94-7.47 117.09-9.18L117.09-9.18Q115.92-6.97 114.59-4.81 113.27-2.65 111.73-0.49L111.73-0.49 107.55-3.51Q108.45-4.77 109.28-6.01 110.12-7.25 110.88-8.55L110.88-8.55 107.15-6.03Q106.78-6.84 106.4-7.69 106.02-8.55 105.62-9.49L105.62-9.49Q104.49-7.29 103.3-5.29 102.11-3.28 100.84-1.44L100.84-1.44 98.14-3.46 98.14 4.5 92.88 4.5 92.88-34.38ZM98.14-29.11L98.14-6.71Q100.75-10.71 102.96-15.16L102.96-15.16Q101.7-17.77 100.48-20.16 99.27-22.54 98.28-24.25L98.28-24.25 102.33-26.73Q102.96-25.56 103.77-24.03 104.58-22.5 105.48-20.79L105.48-20.79Q106.2-22.5 106.81-24.23 107.42-25.96 108-27.77L108-27.77 112.45-26.1Q112.23-25.29 111.96-24.5 111.69-23.71 111.42-22.95L111.42-22.95 114.25-24.93Q115.47-22.95 116.82-20.43L116.82-20.43Q118.13-23.67 119.07-26.82L119.07-26.82 123.08-25.33 123.08-29.11 98.14-29.11ZM119.84-14.85L119.84-14.85Q120.73-13.23 121.52-11.61 122.31-9.99 123.08-8.46L123.08-8.46 123.08-23.76Q121.72-19.17 119.84-14.85ZM108.36-15.21L111.33-9.27Q112.09-10.62 112.84-11.99 113.58-13.37 114.3-14.71L114.3-14.71Q113.31-16.61 112.43-18.27 111.56-19.93 110.79-21.24L110.79-21.24Q110.2-19.66 109.6-18.16 108.99-16.65 108.36-15.21L108.36-15.21ZM175.32-16.92L173.52-11.7Q172.94-11.88 172.37-12.06 171.81-12.24 171.22-12.42L171.22-12.42 171.22 3.42 152.1 3.42 152.1-11.79 150.62-11.25 148.68-16.06Q154.13-17.95 158.09-20.29L158.09-20.29Q157.46-20.97 156.82-21.67 156.19-22.36 155.61-23.13L155.61-23.13Q155.12-22.36 154.57-21.69 154.03-21.02 153.5-20.38L153.5-20.38 149.85-23.85Q150.97-25.2 152.03-26.89 153.09-28.57 154.03-30.33 154.98-32.09 155.75-33.8 156.51-35.5 157.05-36.85L157.05-36.85 162.05-35.37Q161.82-34.74 161.57-34.16 161.32-33.57 161.06-32.94L161.06-32.94 172.22-32.94 172.22-28.04Q170.06-23.76 166.41-20.25L166.41-20.25Q170.01-18.27 175.32-16.92L175.32-16.92ZM137.38-19.26L137.38-19.26Q137.03-19.21 136.78-19.17 136.53-19.13 136.26-19.08L136.26-19.08 134.96-24.21Q135.99-24.75 136.62-25.7L136.62-25.7Q137.12-26.32 137.86-27.63 138.6-28.93 139.41-30.53 140.22-32.13 140.99-33.77 141.75-35.41 142.29-36.67L142.29-36.67 146.97-34.47Q146.21-32.94 145.35-31.32 144.5-29.7 143.69-28.3 142.88-26.91 142.22-25.92 141.57-24.93 141.25-24.66L141.25-24.66Q141.84-24.7 142.56-24.75 143.28-24.79 144.05-24.84L144.05-24.84Q144.94-26.41 145.78-27.97 146.61-29.52 147.28-30.82L147.28-30.82 151.25-28.17Q150.3-26.41 149.09-24.16 147.87-21.91 146.68-19.84 145.49-17.77 144.52-16.2 143.55-14.63 143.15-14.17L143.15-14.17Q144.31-14.4 145.78-14.69 147.24-14.98 148.32-15.21L148.32-15.21 148.41-9.76Q148.14-9.76 146.93-9.58 145.71-9.4 144.18-9.18 142.65-8.96 141.14-8.69 139.63-8.41 138.69-8.19L138.69-8.19Q138.24-8.1 137.9-8.01 137.56-7.92 137.25-7.83L137.25-7.83 135.77-13.28Q136.66-13.63 137.25-14.02 137.84-14.4 138.33-15.12L138.33-15.12Q138.74-15.75 139.46-16.92 140.18-18.09 141.03-19.57L141.03-19.57Q140-19.48 139-19.42 138.02-19.35 137.38-19.26ZM158.36-27.49L158.36-27.49Q160.02-25.02 162.13-23.22L162.13-23.22Q164.7-25.38 166.55-28.04L166.55-28.04 158.67-28.04Q158.53-27.86 158.36-27.49ZM155.25-13.05L169.56-13.05Q165.51-14.63 162.22-16.88L162.22-16.88Q159.21-14.8 155.25-13.05L155.25-13.05ZM166.05-1.57L166.05-8.14 157.23-8.14 157.23-1.57 166.05-1.57ZM149.76-6.66L149.99-4.46 150.25-1.03Q149.76-0.94 148.66-0.74 147.56-0.54 146.14-0.29 144.72-0.04 143.17 0.27 141.62 0.58 140.15 0.88 138.69 1.17 137.47 1.42 136.26 1.67 135.59 1.8L135.59 1.8 134.78-3.65Q135.31-3.73 136.46-3.94 137.61-4.14 139.05-4.43 140.49-4.72 142.09-5.04 143.69-5.35 145.17-5.67 146.66-5.98 147.87-6.23 149.09-6.48 149.76-6.66L149.76-6.66Z" transform="translate(-1.5699999332427979, 36.849998474121094)"></path></g> <!----> <!----> <!----> <!----> <!----> <!----> <!----></g></g> <g data-gra="path-slogan" fill-rule="" class="tp-slogan iconsvg-slogansvg" fill="#aad81a" transform="translate(5.000007629394531,47.97999954223633)"><rect x="0" height="1" y="3.9750003814697266" width="29.165000915527344"></rect> <rect height="1" y="3.9750003814697266" width="29.165000915527344" x="134.58499908447266"></rect> <g transform="translate(32.165000915527344,0)"><g transform="scale(1)"><path d="M0.19-1.92L0.19-2.77L1.27-2.77L1.27-2.16Q1.27-0.75 2.58-0.75L2.58-0.75Q3.94-0.75 3.94-2.25L3.94-2.25L3.94-8.58L5.11-8.58L5.11-2.30Q5.06 0.09 2.63 0.14L2.63 0.14Q0.33 0.09 0.19-1.92L0.19-1.92ZM7.08-8.58L8.25-8.58L8.25 0L7.08 0L7.08-8.58ZM11.63-8.58L15.94-1.64L15.94-8.58L17.06-8.58L17.06 0L15.75 0L11.39-6.94L11.34-6.94L11.34 0L10.22 0L10.22-8.58L11.63-8.58ZM20.02-5.06L24.52-5.06L24.52-8.58L25.69-8.58L25.69 0L24.52 0L24.52-3.98L20.02-3.98L20.02 0L18.84 0L18.84-8.58L20.02-8.58L20.02-5.06ZM33.14-3.19L33.14-8.58L34.31-8.58L34.31-3.05Q34.17 0.05 30.80 0.14L30.80 0.14Q27.66 0.05 27.52-2.86L27.52-2.86L27.52-8.58L28.69-8.58L28.69-3.19Q28.73-0.84 30.84-0.80L30.84-0.80Q33.14-0.84 33.14-3.19L33.14-3.19ZM40.83-8.58L45.14-1.64L45.14-8.58L46.27-8.58L46.27 0L44.95 0L40.59-6.94L40.55-6.94L40.55 0L39.42 0L39.42-8.58L40.83-8.58ZM49.36-1.03L54.52-1.03L54.52 0L48.19 0L48.19-8.58L54.42-8.58L54.42-7.59L49.36-7.59L49.36-4.92L54.05-4.92L54.05-3.89L49.36-3.89L49.36-1.03ZM58.22-7.59L55.31-7.59L55.31-8.58L62.25-8.58L62.25-7.59L59.34-7.59L59.34 0L58.22 0L58.22-7.59ZM68.06-7.13L68.02-7.13L66.05 0L64.83 0L62.58-8.58L63.80-8.58L65.44-1.59L65.48-1.59L67.41-8.58L68.67-8.58L70.59-1.59L70.64-1.59L72.23-8.58L73.50-8.58L71.25 0L70.03 0L68.06-7.13ZM81.38-4.27L81.38-4.27Q81.19-7.64 78.38-7.83L78.38-7.83Q75.52-7.69 75.38-4.27L75.38-4.27Q75.52-0.94 78.38-0.80L78.38-0.80Q81.19-0.98 81.38-4.27ZM82.55-4.27L82.55-4.27Q82.27 0 78.38 0.14L78.38 0.14Q74.44 0 74.16-4.27L74.16-4.27Q74.39-8.72 78.38-8.81L78.38-8.81Q82.27-8.67 82.55-4.27ZM88.03-3.70L85.22-3.70L85.22 0L84.05 0L84.05-8.58L88.03-8.58Q90.89-8.58 90.89-6.28L90.89-6.28Q90.89-4.88 89.67-4.22L89.67-4.22Q90.70-3.94 90.70-2.58L90.70-2.58L90.80-1.03Q90.75-0.38 91.22-0.19L91.22-0.19L91.22 0L89.77 0Q89.63-0.61 89.58-2.16L89.58-2.16Q89.63-3.70 88.03-3.70L88.03-3.70ZM88.13-7.64L85.22-7.64L85.22-4.69L87.94-4.69Q89.67-4.69 89.67-6.19L89.67-6.19Q89.67-7.64 88.13-7.64L88.13-7.64ZM95.06-4.31L93.70-3.05L93.70 0L92.53 0L92.53-8.58L93.70-8.58L93.70-4.41L97.88-8.58L99.52-8.58L95.91-5.11L99.61 0L98.06 0L95.06-4.31Z" transform="translate(-0.1875, 8.8125)"></path></g></g></g></g></g><defs v-gra="od"></defs></svg>